<?xml version="1.0" encoding="iso-8859-1"?>
<!-- Generator: Adobe Illustrator 18.1.1, SVG Export Plug-In . SVG Version: 6.00 Build 0)  -->
<svg version="1.1" id="Capa_1" xmlns="http://www.w3.org/2000/svg" xmlns:xlink="http://www.w3.org/1999/xlink" x="0px" y="0px"
	 viewBox="0 0 16.242 16.242" style="enable-background:new 0 0 16.242 16.242;" xml:space="preserve">
<g>
	<g>
		<path style="fill:#030104;" d="M13.86,2.384c-0.584-0.584-1.257-1.075-1.994-1.46C7.896-1.14,2.988,0.408,0.924,4.376
			c-1.643,3.157-1.057,6.967,1.458,9.482c0.583,0.585,1.254,1.075,1.995,1.46c3.967,2.064,8.876,0.516,10.942-3.452
			C16.96,8.707,16.375,4.898,13.86,2.384z M14.595,11.343l-0.429-0.73c-0.051-0.085-0.148-0.125-0.243-0.1l-2.808,0.729
			c-0.075,0.021-0.135,0.078-0.154,0.153l-0.772,2.796c-0.022,0.077,0,0.156,0.056,0.212c0.007,0.008,0.016,0.016,0.025,0.022
			l0.557,0.402c-1.785,0.72-3.842,0.724-5.705-0.126l0.653-0.383c0.083-0.049,0.125-0.149,0.101-0.244l-0.73-2.806
			c-0.02-0.075-0.077-0.134-0.153-0.155L2.197,10.34c-0.088-0.023-0.182,0.009-0.235,0.082l-0.45,0.623
			c-0.823-1.851-0.838-3.982,0.03-5.898l0.346,0.59c0.011,0.015,0.021,0.031,0.036,0.044c0.052,0.053,0.132,0.076,0.208,0.057
			L4.94,5.107c0.075-0.019,0.135-0.078,0.155-0.153l0.774-2.796c0.023-0.087-0.008-0.179-0.083-0.234L5.202,1.503
			c1.895-0.835,4.125-0.852,6.113,0.125l-0.577,0.339c-0.084,0.05-0.126,0.149-0.101,0.243l0.728,2.808
			c0.011,0.038,0.031,0.071,0.059,0.1c0.025,0.025,0.059,0.045,0.096,0.055l2.797,0.774c0.087,0.023,0.181-0.009,0.234-0.083
			l0.293-0.404C15.582,7.328,15.536,9.455,14.595,11.343z"/>
		<path style="fill:#030104;" d="M9.634,5.583c-0.04-0.067-0.111-0.106-0.19-0.107L6.798,5.501c-0.042,0-0.083,0.013-0.117,0.036
			C6.652,5.555,6.628,5.581,6.61,5.612L5.306,7.918C5.268,7.985,5.268,8.067,5.309,8.136l1.343,2.28
			c0.04,0.067,0.111,0.108,0.19,0.107L9.489,10.5c0.078-0.002,0.15-0.042,0.188-0.111l1.303-2.307
			c0.038-0.066,0.037-0.149-0.002-0.216L9.634,5.583z"/>
	</g>
</g>
<g>
</g>
<g>
</g>
<g>
</g>
<g>
</g>
<g>
</g>
<g>
</g>
<g>
</g>
<g>
</g>
<g>
</g>
<g>
</g>
<g>
</g>
<g>
</g>
<g>
</g>
<g>
</g>
<g>
</g>
</svg>
